<svg width="19" height="22" viewBox="0 0 19 22" fill="none" xmlns="http://www.w3.org/2000/svg">
<path d="M11.234 20.8004C13.8485 18.4994 18.5 13.7984 18.5 9.48438C18.5 7.09743 17.5518 4.80824 15.864 3.12041C14.1761 1.43259 11.8869 0.484375 9.5 0.484375C7.11305 0.484375 4.82387 1.43259 3.13604 3.12041C1.44821 4.80824 0.5 7.09743 0.5 9.48438C0.5 13.7984 5.15 18.4994 7.766 20.8004C8.24317 21.2263 8.8604 21.4617 9.5 21.4617C10.1396 21.4617 10.7568 21.2263 11.234 20.8004ZM6.5 9.48438C6.5 8.68873 6.81607 7.92566 7.37868 7.36305C7.94129 6.80045 8.70435 6.48438 9.5 6.48438C10.2956 6.48438 11.0587 6.80045 11.6213 7.36305C12.1839 7.92566 12.5 8.68873 12.5 9.48438C12.5 10.28 12.1839 11.0431 11.6213 11.6057C11.0587 12.1683 10.2956 12.4844 9.5 12.4844C8.70435 12.4844 7.94129 12.1683 7.37868 11.6057C6.81607 11.0431 6.5 10.28 6.5 9.48438Z" fill="white"/>
</svg>
