<svg width="21" height="17" viewBox="0 0 21 17" fill="none" xmlns="http://www.w3.org/2000/svg">
<path d="M20.5 5.59237V13.7344C20.5001 14.5645 20.1824 15.3632 19.6123 15.9666C19.0422 16.57 18.2628 16.9324 17.434 16.9794L17.25 16.9844H3.75C2.91986 16.9844 2.12117 16.6668 1.51777 16.0967C0.914367 15.5266 0.551999 14.7472 0.505 13.9184L0.5 13.7344V5.59237L10.152 10.6484C10.2594 10.7046 10.3788 10.734 10.5 10.734C10.6212 10.734 10.7406 10.7046 10.848 10.6484L20.5 5.59237ZM3.75 0.984375H17.25C18.0556 0.984278 18.8325 1.28337 19.43 1.82364C20.0276 2.36391 20.4032 3.10686 20.484 3.90837L10.5 9.13838L0.516 3.90837C0.593523 3.13869 0.94305 2.42189 1.50175 1.88684C2.06045 1.35178 2.79168 1.03356 3.564 0.989375L3.75 0.984375Z" fill="white"/>
</svg>
